<svg xmlns="http://www.w3.org/2000/svg" xmlns:xlink="http://www.w3.org/1999/xlink" viewBox="0,0,256,256" width="100px" height="100px" fill-rule="nonzero"><g fill-opacity="0" fill="#85e36a" fill-rule="nonzero" stroke="none" stroke-width="1" stroke-linecap="butt" stroke-linejoin="miter" stroke-miterlimit="10" stroke-dasharray="" stroke-dashoffset="0" font-family="none" font-weight="none" font-size="none" text-anchor="none" style="mix-blend-mode: normal"><path d="M0,256v-256h256v256z" id="bgRectangle"></path></g><g fill-opacity="0.4902" fill="#b1822c" fill-rule="nonzero" stroke-opacity="0.4902" stroke="#b1822c" stroke-width="1" stroke-linecap="butt" stroke-linejoin="round" stroke-miterlimit="10" stroke-dasharray="" stroke-dashoffset="0" font-family="none" font-weight="none" font-size="none" text-anchor="none" style="mix-blend-mode: normal"><path transform="scale(2.56,2.56)" d="M69.575,81h-39c-7.168,0 -13,-5.832 -13,-13v-39c0,-7.168 5.832,-13 13,-13h39c7.168,0 13,5.832 13,13v39c0,7.168 -5.832,13 -13,13z" id="strokeMainSVG"></path></g><g fill="none" fill-rule="nonzero" stroke="none" stroke-width="1" stroke-linecap="butt" stroke-linejoin="miter" stroke-miterlimit="10" stroke-dasharray="" stroke-dashoffset="0" font-family="none" font-weight="none" font-size="none" text-anchor="none" style="mix-blend-mode: normal"><g transform="scale(2.56,2.56)"><path d="M69.575,80h-39c-6.6,0 -12,-5.4 -12,-12v-39c0,-6.6 5.4,-12 12,-12h39c6.6,0 12,5.4 12,12v39c0,6.6 -5.4,12 -12,12z" fill="#b1822c"></path><path d="M69.575,81h-39c-7.168,0 -13,-5.832 -13,-13v-39c0,-7.168 5.832,-13 13,-13h39c7.168,0 13,5.832 13,13v39c0,7.168 -5.832,13 -13,13zM30.575,18c-6.065,0 -11,4.935 -11,11v39c0,6.065 4.935,11 11,11h39c6.065,0 11,-4.935 11,-11v-39c0,-6.065 -4.935,-11 -11,-11z" fill="#6cb366"></path><path d="M77.075,46.5v18.663c0,5.685 -4.652,10.337 -10.337,10.337h-33.326c-5.685,0 -10.337,-4.652 -10.337,-10.337v-33.326c0,-5.685 4.652,-10.337 10.337,-10.337h33.663" fill="#b1822c"></path><path d="M66.738,76h-33.326c-5.976,0 -10.837,-4.861 -10.837,-10.837v-33.326c0,-5.976 4.861,-10.837 10.837,-10.837h33.663c0.276,0 0.5,0.224 0.5,0.5c0,0.276 -0.224,0.5 -0.5,0.5h-33.663c-5.424,0 -9.837,4.413 -9.837,9.837v33.326c0,5.424 4.413,9.837 9.837,9.837h33.326c5.424,0 9.837,-4.413 9.837,-9.837v-18.663c0,-0.276 0.224,-0.5 0.5,-0.5c0.276,0 0.5,0.224 0.5,0.5v18.663c0,5.976 -4.862,10.837 -10.837,10.837z" fill="#6cb366"></path><path d="M77.075,45c-0.276,0 -0.5,-0.224 -0.5,-0.5v-4c0,-0.276 0.224,-0.5 0.5,-0.5c0.276,0 0.5,0.224 0.5,0.5v4c0,0.276 -0.224,0.5 -0.5,0.5zM77.075,39c-0.276,0 -0.5,-0.224 -0.5,-0.5v-2c0,-0.276 0.224,-0.5 0.5,-0.5c0.276,0 0.5,0.224 0.5,0.5v2c0,0.276 -0.224,0.5 -0.5,0.5z" fill="#6cb366"></path><path d="M45.075,39.137c0,0.859 0,4.363 0,4.363h-3v5h3v16h7v-16h4.113c0,0 0.385,-2.387 0.571,-5c-0.536,0 -5.684,0 -5.684,0c0,0 0,-3.146 0,-3.7c0,-0.553 0.725,-1.3 1.442,-1.3c0.717,0 3.123,0 4.558,0c0,-0.788 0,-3.493 0,-6c-1.907,0 -4.081,0 -5.035,0c-7.133,0.008 -6.965,5.777 -6.965,6.637z" fill="#fdfcee"></path><path d="M52.075,65h-7c-0.276,0 -0.5,-0.224 -0.5,-0.5v-15.5h-2.5c-0.276,0 -0.5,-0.224 -0.5,-0.5v-5c0,-0.276 0.224,-0.5 0.5,-0.5h2.5v-3.863h0.5l-0.5,-0.057c-0.008,-2.167 0.612,-3.892 1.843,-5.128c1.286,-1.292 3.178,-1.95 5.621,-1.952h5.036c0.276,0 0.5,0.224 0.5,0.5v6c0,0.276 -0.224,0.5 -0.5,0.5h-4.558c-0.47,0 -0.942,0.549 -0.942,0.8v3.2h5.184c0.139,0 0.271,0.058 0.366,0.159c0.094,0.102 0.143,0.238 0.133,0.376c-0.186,2.605 -0.573,5.02 -0.577,5.044c-0.04,0.243 -0.249,0.421 -0.494,0.421h-3.612v15.5c0,0.276 -0.224,0.5 -0.5,0.5zM45.575,64h6v-15.5c0,-0.276 0.224,-0.5 0.5,-0.5h3.683c0.106,-0.721 0.32,-2.282 0.461,-4h-5.144c-0.276,0 -0.5,-0.224 -0.5,-0.5v-3.7c0,-0.875 0.998,-1.8 1.942,-1.8h4.058v-5h-4.535c-2.168,0.002 -3.821,0.56 -4.914,1.658c-1.036,1.041 -1.558,2.527 -1.551,4.419v0.06v4.363c0,0.276 -0.224,0.5 -0.5,0.5h-2.5v4h2.5c0.276,0 0.5,0.224 0.5,0.5z" fill="#6cb366"></path></g></g><g fill="none" fill-rule="nonzero" stroke="none" stroke-width="none" stroke-linecap="butt" stroke-linejoin="none" stroke-miterlimit="10" stroke-dasharray="" stroke-dashoffset="0" font-family="none" font-weight="none" font-size="none" text-anchor="none" style="mix-blend-mode: normal"><path d="M65.835,178.89v-1.09l0.65,-0.1l2.77,-7.91h1.86l2.75,7.91l0.65,0.1v1.09h-3.1v-1.09l0.64,-0.12l-0.4,-1.25h-2.95l-0.4,1.25l0.63,0.12v1.09zM70.155,171.88l-1.02,3.21h2.08l-1.02,-3.21zM79.315,178.89l-0.11,-0.86c-0.22,0.32 -0.49,0.56667 -0.81,0.74c-0.32,0.16667 -0.68333,0.25 -1.09,0.25c-0.71333,0 -1.27,-0.22667 -1.67,-0.68c-0.40667,-0.46 -0.61,-1.17 -0.61,-2.13v-2.79l-0.74,-0.19v-1.1h2.57v4.09c0,0.49333 0.08,0.84667 0.24,1.06c0.16667,0.21333 0.41333,0.32 0.74,0.32c0.28667,0 0.53333,-0.04667 0.74,-0.14c0.21333,-0.09333 0.38667,-0.22667 0.52,-0.4v-3.64l-0.8,-0.19v-1.1h2.62v5.48l0.82,0.19v1.09zM82.265,178.89v-1.09l0.63,-0.1l1.84,-2.23l-1.78,-2.14l-0.63,-0.1v-1.1h3.04v1.05l-0.61,0.08l1.02,1.3l1.01,-1.3l-0.63,-0.08v-1.05h3.05v1.1l-0.61,0.1l-1.74,2.14l1.83,2.23l0.64,0.1v1.09h-3.09v-1.05l0.62,-0.07l-1.05,-1.37l-1.07,1.37l0.54,0.07v1.05zM97.575,178.89l-0.14,-0.82c-0.21333,0.30667 -0.46333,0.54333 -0.75,0.71c-0.28667,0.16 -0.61667,0.24 -0.99,0.24c-0.83333,0 -1.48,-0.30333 -1.94,-0.91c-0.46,-0.60667 -0.69,-1.41 -0.69,-2.41v-0.13c0,-1.06667 0.23,-1.93 0.69,-2.59c0.46667,-0.65333 1.11667,-0.98 1.95,-0.98c0.34,0 0.64333,0.07333 0.91,0.22c0.27333,0.15333 0.51333,0.36333 0.72,0.63v-2.42l-0.98,-0.19v-1.1h2.8v8.47l0.88,0.19v1.09zM94.885,175.7c0,0.58667 0.1,1.05 0.3,1.39c0.2,0.34 0.52333,0.51 0.97,0.51c0.26667,0 0.5,-0.05333 0.7,-0.16c0.19333,-0.10667 0.35333,-0.26333 0.48,-0.47v-2.87c-0.12667,-0.21333 -0.28667,-0.38 -0.48,-0.5c-0.19333,-0.12 -0.42333,-0.18 -0.69,-0.18c-0.44,0 -0.76333,0.2 -0.97,0.6c-0.20667,0.39333 -0.31,0.91 -0.31,1.55zM103.855,179.02c-0.98,0 -1.76,-0.31333 -2.34,-0.94c-0.58667,-0.62 -0.88,-1.41333 -0.88,-2.38v-0.25c0,-1 0.27667,-1.82667 0.83,-2.48c0.55333,-0.64667 1.29333,-0.97 2.22,-0.97c0.91333,0 1.62333,0.27667 2.13,0.83c0.5,0.54667 0.75,1.29 0.75,2.23v0.99h-4.03l-0.02,0.04c0.03333,0.44667 0.18333,0.81333 0.45,1.1c0.26667,0.28667 0.62667,0.43 1.08,0.43c0.40667,0 0.74333,-0.04 1.01,-0.12c0.26667,-0.08 0.55667,-0.20667 0.87,-0.38l0.49,1.12c-0.27333,0.22 -0.63333,0.40667 -1.08,0.56c-0.44667,0.14667 -0.94,0.22 -1.48,0.22zM103.685,173.41c-0.33333,0 -0.6,0.13 -0.8,0.39c-0.19333,0.25333 -0.31333,0.59333 -0.36,1.02l0.02,0.03h2.24v-0.17c0,-0.38667 -0.09333,-0.69333 -0.28,-0.92c-0.18,-0.23333 -0.45333,-0.35 -0.82,-0.35zM102.495,171.16l1.24,-1.66h1.93l0.02,0.03l-1.73,1.63zM108.215,170.43l-0.98,-0.19v-1.1h2.8v8.47l0.88,0.19v1.09h-3.58v-1.09l0.88,-0.19zM111.455,178.89v-1.09l0.88,-0.19v-4.19l-0.97,-0.19v-1.1h2.8v5.48l0.87,0.19v1.09zM114.165,169.14v1.37h-1.83v-1.37zM118.815,177.62c0.32667,0 0.58667,-0.09333 0.78,-0.28c0.19333,-0.19333 0.29,-0.44667 0.29,-0.76h1.65l0.02,0.04c0.02,0.68 -0.23667,1.25 -0.77,1.71c-0.52667,0.46 -1.18333,0.69 -1.97,0.69c-1.00667,0 -1.78333,-0.31667 -2.33,-0.95c-0.54667,-0.64 -0.82,-1.46 -0.82,-2.46v-0.19c0,-0.99333 0.28,-1.81 0.84,-2.45c0.56,-0.64667 1.36,-0.97 2.4,-0.97c0.54,0 1.02667,0.08333 1.46,0.25c0.43333,0.16 0.79667,0.38667 1.09,0.68l0.02,1.81h-1.48l-0.3,-1.06c-0.09333,-0.07333 -0.20667,-0.13667 -0.34,-0.19c-0.13333,-0.05333 -0.28333,-0.08 -0.45,-0.08c-0.52,0 -0.88667,0.18667 -1.1,0.56c-0.21333,0.37333 -0.32,0.85667 -0.32,1.45v0.19c0,0.60667 0.1,1.09333 0.3,1.46c0.19333,0.36667 0.53667,0.55 1.03,0.55zM125.615,179.02c-0.97333,0 -1.75,-0.31333 -2.33,-0.94c-0.58667,-0.62 -0.88,-1.41333 -0.88,-2.38v-0.25c0,-1 0.27667,-1.82667 0.83,-2.48c0.55333,-0.64667 1.29333,-0.97 2.22,-0.97c0.91333,0 1.62333,0.27667 2.13,0.83c0.5,0.54667 0.75,1.29 0.75,2.23v0.99h-4.03l-0.02,0.04c0.03333,0.44667 0.18333,0.81333 0.45,1.1c0.26667,0.28667 0.62667,0.43 1.08,0.43c0.4,0 0.73333,-0.04 1,-0.12c0.26667,-0.08 0.56,-0.20667 0.88,-0.38l0.49,1.12c-0.28,0.22 -0.64,0.40667 -1.08,0.56c-0.44667,0.14667 -0.94333,0.22 -1.49,0.22zM125.455,173.41c-0.33333,0 -0.6,0.13 -0.8,0.39c-0.19333,0.25333 -0.31333,0.59333 -0.36,1.02l0.02,0.03h2.24v-0.17c0,-0.38667 -0.09333,-0.69333 -0.28,-0.92c-0.18,-0.23333 -0.45333,-0.35 -0.82,-0.35zM134.715,174.45h-1.22l-0.19,-0.84c-0.12667,-0.1 -0.28667,-0.18333 -0.48,-0.25c-0.18667,-0.06667 -0.39333,-0.1 -0.62,-0.1c-0.32667,0 -0.58333,0.07 -0.77,0.21c-0.18667,0.14667 -0.28,0.33 -0.28,0.55c0,0.2 0.09,0.36667 0.27,0.5c0.18,0.14 0.53667,0.26 1.07,0.36c0.84,0.16667 1.46333,0.41333 1.87,0.74c0.4,0.32 0.6,0.76333 0.6,1.33c0,0.61333 -0.26,1.11 -0.78,1.49c-0.52,0.38667 -1.21,0.58 -2.07,0.58c-0.52,0 -0.99667,-0.07667 -1.43,-0.23c-0.43333,-0.14667 -0.82,-0.36333 -1.16,-0.65l-0.02,-1.52h1.28l0.25,0.88c0.10667,0.09333 0.25333,0.16333 0.44,0.21c0.18667,0.04 0.38333,0.06 0.59,0.06c0.36667,0 0.64667,-0.06667 0.84,-0.2c0.2,-0.13333 0.3,-0.31333 0.3,-0.54c0,-0.2 -0.1,-0.37333 -0.3,-0.52c-0.19333,-0.14667 -0.55333,-0.27667 -1.08,-0.39c-0.79333,-0.16 -1.39333,-0.4 -1.8,-0.72c-0.40667,-0.32 -0.61,-0.75333 -0.61,-1.3c0,-0.56667 0.23333,-1.05667 0.7,-1.47c0.46667,-0.40667 1.13,-0.61 1.99,-0.61c0.52667,0 1.02333,0.07 1.49,0.21c0.47333,0.14 0.84333,0.32 1.11,0.54zM143.465,178.89l-0.14,-0.82c-0.21333,0.30667 -0.46333,0.54333 -0.75,0.71c-0.29333,0.16 -0.62333,0.24 -0.99,0.24c-0.83333,0 -1.48,-0.30333 -1.94,-0.91c-0.46,-0.60667 -0.69,-1.41 -0.69,-2.41v-0.13c0,-1.06667 0.23,-1.93 0.69,-2.59c0.46,-0.65333 1.11,-0.98 1.95,-0.98c0.34,0 0.64333,0.07333 0.91,0.22c0.27333,0.15333 0.51,0.36333 0.71,0.63v-2.42l-0.97,-0.19v-1.1h2.8v8.47l0.87,0.19v1.09zM140.775,175.7c0,0.58667 0.1,1.05 0.3,1.39c0.19333,0.34 0.51667,0.51 0.97,0.51c0.26667,0 0.49667,-0.05333 0.69,-0.16c0.2,-0.10667 0.36,-0.26333 0.48,-0.47v-2.87c-0.12,-0.21333 -0.27667,-0.38 -0.47,-0.5c-0.19333,-0.12 -0.42333,-0.18 -0.69,-0.18c-0.44667,0 -0.77,0.2 -0.97,0.6c-0.20667,0.39333 -0.31,0.91 -0.31,1.55zM149.735,179.02c-0.97333,0 -1.75,-0.31333 -2.33,-0.94c-0.58667,-0.62 -0.88,-1.41333 -0.88,-2.38v-0.25c0,-1 0.27667,-1.82667 0.83,-2.48c0.55333,-0.64667 1.29333,-0.97 2.22,-0.97c0.91333,0 1.62333,0.27667 2.13,0.83c0.5,0.54667 0.75,1.29 0.75,2.23v0.99h-4.04l-0.01,0.04c0.03333,0.44667 0.18333,0.81333 0.45,1.1c0.26667,0.28667 0.62667,0.43 1.08,0.43c0.4,0 0.73333,-0.04 1,-0.12c0.26667,-0.08 0.56,-0.20667 0.88,-0.38l0.49,1.12c-0.28,0.22 -0.64,0.40667 -1.08,0.56c-0.44667,0.14667 -0.94333,0.22 -1.49,0.22zM149.575,173.41c-0.34,0 -0.60667,0.13 -0.8,0.39c-0.19333,0.25333 -0.31333,0.59333 -0.36,1.02l0.02,0.03h2.23v-0.17c0,-0.38667 -0.09,-0.69333 -0.27,-0.92c-0.18,-0.23333 -0.45333,-0.35 -0.82,-0.35zM163.255,178.89h-6.84v-1.09l0.97,-0.19v-6.53l-0.97,-0.19v-1.1h3.77v1.1l-0.98,0.19v6.41h2.57l0.09,-1.14h1.39zM170.365,178.89h-2.1c-0.05333,-0.11333 -0.09667,-0.23 -0.13,-0.35c-0.04,-0.11333 -0.07,-0.23333 -0.09,-0.36c-0.22,0.25333 -0.48333,0.45667 -0.79,0.61c-0.31333,0.15333 -0.67,0.23 -1.07,0.23c-0.66,0 -1.18667,-0.18 -1.58,-0.54c-0.38667,-0.36 -0.58,-0.85 -0.58,-1.47c0,-0.63333 0.25333,-1.12333 0.76,-1.47c0.51333,-0.34667 1.26,-0.52 2.24,-0.52h0.93v-0.66c0,-0.32667 -0.09333,-0.58 -0.28,-0.76c-0.18667,-0.18 -0.46333,-0.27 -0.83,-0.27c-0.20667,0 -0.39333,0.02667 -0.56,0.08c-0.16,0.04667 -0.29,0.10333 -0.39,0.17l-0.12,0.72h-1.37v-1.5c0.33333,-0.22 0.71667,-0.41 1.15,-0.57c0.43333,-0.15333 0.90333,-0.23 1.41,-0.23c0.83333,0 1.51333,0.20667 2.04,0.62c0.52,0.40667 0.78,0.99 0.78,1.75v2.8c0,0.1 0.00333,0.19667 0.01,0.29c0,0.09333 0.00667,0.18 0.02,0.26l0.55,0.08zM166.685,177.67c0.27333,0 0.52333,-0.06 0.75,-0.18c0.22,-0.11333 0.39333,-0.26 0.52,-0.44v-1.03h-0.93c-0.38667,0 -0.68,0.09 -0.88,0.27c-0.2,0.18 -0.3,0.39667 -0.3,0.65c0,0.22667 0.07333,0.40667 0.22,0.54c0.14667,0.12667 0.35333,0.19 0.62,0.19zM176.655,173.17l-3.25,4.32h1.89l0.07,-0.9h1.4v2.3h-5.62v-1.07l3.22,-4.28h-1.66l-0.07,0.89h-1.4v-2.3h5.42zM180.815,179.02c-0.97333,0 -1.75333,-0.31333 -2.34,-0.94c-0.58,-0.62 -0.87,-1.41333 -0.87,-2.38v-0.25c0,-1 0.27333,-1.82667 0.82,-2.48c0.55333,-0.64667 1.29667,-0.97 2.23,-0.97c0.90667,0 1.61333,0.27667 2.12,0.83c0.50667,0.54667 0.76,1.29 0.76,2.23v0.99h-4.04l-0.01,0.04c0.03333,0.44667 0.18,0.81333 0.44,1.1c0.26667,0.28667 0.62667,0.43 1.08,0.43c0.40667,0 0.74333,-0.04 1.01,-0.12c0.26667,-0.08 0.55667,-0.20667 0.87,-0.38l0.5,1.12c-0.28,0.22 -0.64333,0.40667 -1.09,0.56c-0.44,0.14667 -0.93333,0.22 -1.48,0.22zM180.655,173.41c-0.34,0 -0.60667,0.13 -0.8,0.39c-0.2,0.25333 -0.32333,0.59333 -0.37,1.02l0.02,0.03h2.24v-0.17c0,-0.38667 -0.09,-0.69333 -0.27,-0.92c-0.18,-0.23333 -0.45333,-0.35 -0.82,-0.35zM190.055,173.17l-3.24,4.32h1.89l0.07,-0.9h1.39v2.3h-5.61v-1.07l3.21,-4.28h-1.65l-0.07,0.89h-1.4v-2.3h5.41z" id="strokeMainSVG" fill-opacity="0.4902" fill="#b1822c" stroke-opacity="0.4902" stroke="#b1822c" stroke-width="2.56" stroke-linejoin="round"></path><g fill="#000000" stroke="none" stroke-width="1" stroke-linejoin="miter"><path d="M65.835,178.89v-1.09l0.65,-0.1l2.77,-7.91h1.86l2.75,7.91l0.65,0.1v1.09h-3.1v-1.09l0.64,-0.12l-0.4,-1.25h-2.95l-0.4,1.25l0.63,0.12v1.09zM70.155,171.88l-1.02,3.21h2.08l-1.02,-3.21zM79.315,178.89l-0.11,-0.86c-0.22,0.32 -0.49,0.56667 -0.81,0.74c-0.32,0.16667 -0.68333,0.25 -1.09,0.25v0c-0.71333,0 -1.27,-0.22667 -1.67,-0.68c-0.40667,-0.46 -0.61,-1.17 -0.61,-2.13v0v-2.79l-0.74,-0.19v-1.1h0.74h1.83v4.09c0,0.49333 0.08,0.84667 0.24,1.06c0.16667,0.21333 0.41333,0.32 0.74,0.32v0c0.28667,0 0.53333,-0.04667 0.74,-0.14c0.21333,-0.09333 0.38667,-0.22667 0.52,-0.4v0v-3.64l-0.8,-0.19v-1.1h0.8h1.82v5.48l0.82,0.19v1.09zM82.265,178.89v-1.09l0.63,-0.1l1.84,-2.23l-1.78,-2.14l-0.63,-0.1v-1.1h3.04v1.05l-0.61,0.08l1.02,1.3l1.01,-1.3l-0.63,-0.08v-1.05h3.05v1.1l-0.61,0.1l-1.74,2.14l1.83,2.23l0.64,0.1v1.09h-3.09v-1.05l0.62,-0.07l-1.05,-1.37l-1.07,1.37l0.54,0.07v1.05zM97.575,178.89l-0.14,-0.82c-0.21333,0.30667 -0.46333,0.54333 -0.75,0.71c-0.28667,0.16 -0.61667,0.24 -0.99,0.24v0c-0.83333,0 -1.48,-0.30333 -1.94,-0.91c-0.46,-0.60667 -0.69,-1.41 -0.69,-2.41v0v-0.13c0,-1.06667 0.23,-1.93 0.69,-2.59c0.46667,-0.65333 1.11667,-0.98 1.95,-0.98v0c0.34,0 0.64333,0.07333 0.91,0.22c0.27333,0.15333 0.51333,0.36333 0.72,0.63v0v-2.42l-0.98,-0.19v-1.1h0.98h1.82v8.47l0.88,0.19v1.09zM94.885,175.57v0.13c0,0.58667 0.1,1.05 0.3,1.39c0.2,0.34 0.52333,0.51 0.97,0.51v0c0.26667,0 0.5,-0.05333 0.7,-0.16c0.19333,-0.10667 0.35333,-0.26333 0.48,-0.47v0v-2.87c-0.12667,-0.21333 -0.28667,-0.38 -0.48,-0.5c-0.19333,-0.12 -0.42333,-0.18 -0.69,-0.18v0c-0.44,0 -0.76333,0.2 -0.97,0.6c-0.20667,0.39333 -0.31,0.91 -0.31,1.55zM100.635,178.89zM103.855,179.02v0c-0.98,0 -1.76,-0.31333 -2.34,-0.94c-0.58667,-0.62 -0.88,-1.41333 -0.88,-2.38v0v-0.25c0,-1 0.27667,-1.82667 0.83,-2.48c0.55333,-0.64667 1.29333,-0.97 2.22,-0.97v0c0.91333,0 1.62333,0.27667 2.13,0.83c0.5,0.54667 0.75,1.29 0.75,2.23v0v0.99h-4.03l-0.02,0.04c0.03333,0.44667 0.18333,0.81333 0.45,1.1c0.26667,0.28667 0.62667,0.43 1.08,0.43v0c0.40667,0 0.74333,-0.04 1.01,-0.12c0.26667,-0.08 0.55667,-0.20667 0.87,-0.38v0l0.49,1.12c-0.27333,0.22 -0.63333,0.40667 -1.08,0.56c-0.44667,0.14667 -0.94,0.22 -1.48,0.22zM103.685,173.41v0c-0.33333,0 -0.6,0.13 -0.8,0.39c-0.19333,0.25333 -0.31333,0.59333 -0.36,1.02v0l0.02,0.03h2.24v-0.17c0,-0.38667 -0.09333,-0.69333 -0.28,-0.92c-0.18,-0.23333 -0.45333,-0.35 -0.82,-0.35zM102.495,171.16l1.24,-1.66h1.93l0.02,0.03l-1.73,1.63zM108.215,170.43l-0.98,-0.19v-1.1h2.8v8.47l0.88,0.19v1.09h-3.58v-1.09l0.88,-0.19zM111.455,178.89v-1.09l0.88,-0.19v-4.19l-0.97,-0.19v-1.1h2.8v5.48l0.87,0.19v1.09zM114.165,169.14v1.37h-1.83v-1.37zM118.815,177.62v0c0.32667,0 0.58667,-0.09333 0.78,-0.28c0.19333,-0.19333 0.29,-0.44667 0.29,-0.76v0h1.65l0.02,0.04c0.02,0.68 -0.23667,1.25 -0.77,1.71c-0.52667,0.46 -1.18333,0.69 -1.97,0.69v0c-1.00667,0 -1.78333,-0.31667 -2.33,-0.95c-0.54667,-0.64 -0.82,-1.46 -0.82,-2.46v0v-0.19c0,-0.99333 0.28,-1.81 0.84,-2.45c0.56,-0.64667 1.36,-0.97 2.4,-0.97v0c0.54,0 1.02667,0.08333 1.46,0.25c0.43333,0.16 0.79667,0.38667 1.09,0.68v0l0.02,1.81h-1.48l-0.3,-1.06c-0.09333,-0.07333 -0.20667,-0.13667 -0.34,-0.19c-0.13333,-0.05333 -0.28333,-0.08 -0.45,-0.08v0c-0.52,0 -0.88667,0.18667 -1.1,0.56c-0.21333,0.37333 -0.32,0.85667 -0.32,1.45v0v0.19c0,0.60667 0.1,1.09333 0.3,1.46c0.19333,0.36667 0.53667,0.55 1.03,0.55zM125.615,179.02v0c-0.97333,0 -1.75,-0.31333 -2.33,-0.94c-0.58667,-0.62 -0.88,-1.41333 -0.88,-2.38v0v-0.25c0,-1 0.27667,-1.82667 0.83,-2.48c0.55333,-0.64667 1.29333,-0.97 2.22,-0.97v0c0.91333,0 1.62333,0.27667 2.13,0.83c0.5,0.54667 0.75,1.29 0.75,2.23v0v0.99h-4.03l-0.02,0.04c0.03333,0.44667 0.18333,0.81333 0.45,1.1c0.26667,0.28667 0.62667,0.43 1.08,0.43v0c0.4,0 0.73333,-0.04 1,-0.12c0.26667,-0.08 0.56,-0.20667 0.88,-0.38v0l0.49,1.12c-0.28,0.22 -0.64,0.40667 -1.08,0.56c-0.44667,0.14667 -0.94333,0.22 -1.49,0.22zM125.455,173.41v0c-0.33333,0 -0.6,0.13 -0.8,0.39c-0.19333,0.25333 -0.31333,0.59333 -0.36,1.02v0l0.02,0.03h2.24v-0.17c0,-0.38667 -0.09333,-0.69333 -0.28,-0.92c-0.18,-0.23333 -0.45333,-0.35 -0.82,-0.35zM134.705,172.77l0.01,1.68h-1.22l-0.19,-0.84c-0.12667,-0.1 -0.28667,-0.18333 -0.48,-0.25c-0.18667,-0.06667 -0.39333,-0.1 -0.62,-0.1v0c-0.32667,0 -0.58333,0.07 -0.77,0.21c-0.18667,0.14667 -0.28,0.33 -0.28,0.55v0c0,0.2 0.09,0.36667 0.27,0.5c0.18,0.14 0.53667,0.26 1.07,0.36v0c0.84,0.16667 1.46333,0.41333 1.87,0.74c0.4,0.32 0.6,0.76333 0.6,1.33v0c0,0.61333 -0.26,1.11 -0.78,1.49c-0.52,0.38667 -1.21,0.58 -2.07,0.58v0c-0.52,0 -0.99667,-0.07667 -1.43,-0.23c-0.43333,-0.14667 -0.82,-0.36333 -1.16,-0.65v0l-0.02,-1.52h1.28l0.25,0.88c0.10667,0.09333 0.25333,0.16333 0.44,0.21c0.18667,0.04 0.38333,0.06 0.59,0.06v0c0.36667,0 0.64667,-0.06667 0.84,-0.2c0.2,-0.13333 0.3,-0.31333 0.3,-0.54v0c0,-0.2 -0.1,-0.37333 -0.3,-0.52c-0.19333,-0.14667 -0.55333,-0.27667 -1.08,-0.39v0c-0.79333,-0.16 -1.39333,-0.4 -1.8,-0.72c-0.40667,-0.32 -0.61,-0.75333 -0.61,-1.3v0c0,-0.56667 0.23333,-1.05667 0.7,-1.47c0.46667,-0.40667 1.13,-0.61 1.99,-0.61v0c0.52667,0 1.02333,0.07 1.49,0.21c0.47333,0.14 0.84333,0.32 1.11,0.54zM143.465,178.89l-0.14,-0.82c-0.21333,0.30667 -0.46333,0.54333 -0.75,0.71c-0.29333,0.16 -0.62333,0.24 -0.99,0.24v0c-0.83333,0 -1.48,-0.30333 -1.94,-0.91c-0.46,-0.60667 -0.69,-1.41 -0.69,-2.41v0v-0.13c0,-1.06667 0.23,-1.93 0.69,-2.59c0.46,-0.65333 1.11,-0.98 1.95,-0.98v0c0.34,0 0.64333,0.07333 0.91,0.22c0.27333,0.15333 0.51,0.36333 0.71,0.63v0v-2.42l-0.97,-0.19v-1.1h0.97h1.83v8.47l0.87,0.19v1.09zM140.775,175.57v0.13c0,0.58667 0.1,1.05 0.3,1.39c0.19333,0.34 0.51667,0.51 0.97,0.51v0c0.26667,0 0.49667,-0.05333 0.69,-0.16c0.2,-0.10667 0.36,-0.26333 0.48,-0.47v0v-2.87c-0.12,-0.21333 -0.27667,-0.38 -0.47,-0.5c-0.19333,-0.12 -0.42333,-0.18 -0.69,-0.18v0c-0.44667,0 -0.77,0.2 -0.97,0.6c-0.20667,0.39333 -0.31,0.91 -0.31,1.55zM149.735,179.02v0c-0.97333,0 -1.75,-0.31333 -2.33,-0.94c-0.58667,-0.62 -0.88,-1.41333 -0.88,-2.38v0v-0.25c0,-1 0.27667,-1.82667 0.83,-2.48c0.55333,-0.64667 1.29333,-0.97 2.22,-0.97v0c0.91333,0 1.62333,0.27667 2.13,0.83c0.5,0.54667 0.75,1.29 0.75,2.23v0v0.99h-4.04l-0.01,0.04c0.03333,0.44667 0.18333,0.81333 0.45,1.1c0.26667,0.28667 0.62667,0.43 1.08,0.43v0c0.4,0 0.73333,-0.04 1,-0.12c0.26667,-0.08 0.56,-0.20667 0.88,-0.38v0l0.49,1.12c-0.28,0.22 -0.64,0.40667 -1.08,0.56c-0.44667,0.14667 -0.94333,0.22 -1.49,0.22zM149.575,173.41v0c-0.34,0 -0.60667,0.13 -0.8,0.39c-0.19333,0.25333 -0.31333,0.59333 -0.36,1.02v0l0.02,0.03h2.23v-0.17c0,-0.38667 -0.09,-0.69333 -0.27,-0.92c-0.18,-0.23333 -0.45333,-0.35 -0.82,-0.35zM163.255,178.89h-6.84v-1.09l0.97,-0.19v-6.53l-0.97,-0.19v-1.1h0.97h1.82h0.98v1.1l-0.98,0.19v6.41h2.57l0.09,-1.14h1.39zM170.365,178.89h-2.1c-0.05333,-0.11333 -0.09667,-0.23 -0.13,-0.35c-0.04,-0.11333 -0.07,-0.23333 -0.09,-0.36v0c-0.22,0.25333 -0.48333,0.45667 -0.79,0.61c-0.31333,0.15333 -0.67,0.23 -1.07,0.23v0c-0.66,0 -1.18667,-0.18 -1.58,-0.54c-0.38667,-0.36 -0.58,-0.85 -0.58,-1.47v0c0,-0.63333 0.25333,-1.12333 0.76,-1.47c0.51333,-0.34667 1.26,-0.52 2.24,-0.52v0h0.93v-0.66c0,-0.32667 -0.09333,-0.58 -0.28,-0.76c-0.18667,-0.18 -0.46333,-0.27 -0.83,-0.27v0c-0.20667,0 -0.39333,0.02667 -0.56,0.08c-0.16,0.04667 -0.29,0.10333 -0.39,0.17v0l-0.12,0.72h-1.37v-1.5c0.33333,-0.22 0.71667,-0.41 1.15,-0.57c0.43333,-0.15333 0.90333,-0.23 1.41,-0.23v0c0.83333,0 1.51333,0.20667 2.04,0.62c0.52,0.40667 0.78,0.99 0.78,1.75v0v2.8c0,0.1 0.00333,0.19667 0.01,0.29c0,0.09333 0.00667,0.18 0.02,0.26v0l0.55,0.08zM166.685,177.67v0c0.27333,0 0.52333,-0.06 0.75,-0.18c0.22,-0.11333 0.39333,-0.26 0.52,-0.44v0v-1.03h-0.93c-0.38667,0 -0.68,0.09 -0.88,0.27c-0.2,0.18 -0.3,0.39667 -0.3,0.65v0c0,0.22667 0.07333,0.40667 0.22,0.54c0.14667,0.12667 0.35333,0.19 0.62,0.19zM176.655,173.17l-3.25,4.32h1.89l0.07,-0.9h1.4v2.3h-5.62v-1.07l3.22,-4.28h-1.66l-0.07,0.89h-1.4v-2.3h5.42zM180.815,179.02v0c-0.97333,0 -1.75333,-0.31333 -2.34,-0.94c-0.58,-0.62 -0.87,-1.41333 -0.87,-2.38v0v-0.25c0,-1 0.27333,-1.82667 0.82,-2.48c0.55333,-0.64667 1.29667,-0.97 2.23,-0.97v0c0.90667,0 1.61333,0.27667 2.12,0.83c0.50667,0.54667 0.76,1.29 0.76,2.23v0v0.99h-4.04l-0.01,0.04c0.03333,0.44667 0.18,0.81333 0.44,1.1c0.26667,0.28667 0.62667,0.43 1.08,0.43v0c0.40667,0 0.74333,-0.04 1.01,-0.12c0.26667,-0.08 0.55667,-0.20667 0.87,-0.38v0l0.5,1.12c-0.28,0.22 -0.64333,0.40667 -1.09,0.56c-0.44,0.14667 -0.93333,0.22 -1.48,0.22zM180.655,173.41v0c-0.34,0 -0.60667,0.13 -0.8,0.39c-0.2,0.25333 -0.32333,0.59333 -0.37,1.02v0l0.02,0.03h2.24v-0.17c0,-0.38667 -0.09,-0.69333 -0.27,-0.92c-0.18,-0.23333 -0.45333,-0.35 -0.82,-0.35zM190.055,173.17l-3.24,4.32h1.89l0.07,-0.9h1.39v2.3h-5.61v-1.07l3.21,-4.28h-1.65l-0.07,0.89h-1.4v-2.3h5.41z"></path></g></g></svg>